<svg xmlns="http://www.w3.org/2000/svg" viewBox="0 0 256 256"><ellipse cx="128" cy="229" rx="65" ry="14" fill="#020617" opacity=".55"/><path d="M59 203L73 91l38-46h36l36 46 14 112-40 27H98Z" fill="#28301d" stroke="#060803" stroke-width="8"/><path d="M78 91L40 120l19 44 41-23M178 91l38 29-19 44-41-23" fill="#444b24" stroke="#a3b85b" stroke-width="6"/><path d="M92 59l36-36 37 36 9 69-46 31-45-31Z" fill="#202918" stroke="#71805b" stroke-width="6"/><path d="M97 80h62l-8 29-23 13-24-13Z" fill="#84cc16"/><path d="M107 87h42" stroke="#ecfccb" stroke-width="6"/><path d="M72 169h112l3 48H69Z" fill="#141a0e" stroke="#9a633d" stroke-width="5"/><path d="M128 207c-21-15-21-38 0-47 21 9 21 32 0 47Z" fill="#4ade80"/><path d="M128 169v34" stroke="#dcfce7" stroke-width="4"/></svg>
