<svg xmlns="http://www.w3.org/2000/svg" viewBox="0 0 256 256"><ellipse cx="128" cy="230" rx="72" ry="15" fill="#020617" opacity=".6"/><path d="M50 201L64 96l42-49h44l42 49 14 105-42 29H92Z" fill="#372322" stroke="#070405" stroke-width="9"/><path d="M73 91L29 121l17 53 51-27M183 91l44 30-17 53-51-27" fill="#5a302c" stroke="#ef6a4c" stroke-width="7"/><path d="M94 59l34-30 35 30 10 69-45 32-45-32Z" fill="#231a1b" stroke="#7f6564" stroke-width="6"/><path d="M96 85h64l-10 28-22 12-23-12Z" fill="#fb7185"/><path d="M105 91h46" stroke="#fff1f2" stroke-width="6"/><path d="M72 171h112l6 47H66Z" fill="#171012" stroke="#b46742" stroke-width="5"/><circle cx="128" cy="189" r="20" fill="#450a0a" stroke="#fca5a5" stroke-width="4"/><path d="M115 189h26M128 176v26" stroke="#fff" stroke-width="5"/></svg>
