<svg xmlns="http://www.w3.org/2000/svg" viewBox="0 0 256 256"><defs><linearGradient id="a" x2="1" y2="1"><stop stop-color="#334b5b"/><stop offset="1" stop-color="#09131c"/></linearGradient><filter id="g"><feGaussianBlur stdDeviation="4"/></filter></defs><ellipse cx="128" cy="226" rx="63" ry="15" fill="#020617" opacity=".55"/><path d="M61 193L72 93l31-36h66l25 36 7 100-36 31H96Z" fill="url(#a)" stroke="#02070c" stroke-width="8"/><path d="M81 93l-23 25 16 32 25-16M179 91l25 23-13 34-27-13" fill="#162734" stroke="#9a5b35" stroke-width="6"/><path d="M93 74l20-24h49l18 25-11 57H96Z" fill="#101f2a" stroke="#526b79" stroke-width="6"/><path d="M101 89h62l-8 23h-49Z" fill="#22d3ee" opacity=".28" filter="url(#g)"/><path d="M101 86h62l-8 20h-49Z" fill="#67e8f9" stroke="#bff7ff" stroke-width="3"/><path d="M173 51l13-28 8 4-8 34" fill="#c67b48"/><circle cx="190" cy="23" r="6" fill="#67e8f9"/><path d="M92 171h72l14 39H78Z" fill="#0b1720" stroke="#8d5437" stroke-width="5"/><circle cx="128" cy="180" r="15" fill="#082f49" stroke="#67e8f9" stroke-width="4"/><path d="M122 180h12M128 174v12" stroke="#fff" stroke-width="3"/></svg>
