<svg xmlns="http://www.w3.org/2000/svg" viewBox="0 0 256 256"><ellipse cx="128" cy="227" rx="62" ry="15" fill="#020617" opacity=".58"/><path d="M62 202L75 91l36-48h38l34 48 12 111-38 27H98Z" fill="#10211f" stroke="#030807" stroke-width="9"/><path d="M82 93l-27 27 16 42 28-19M174 93l27 27-16 42-28-19" fill="#19342e" stroke="#4ade80" stroke-width="5"/><path d="M94 61l34-28 35 28 9 68-44 30-44-30Z" fill="#d6e4df" stroke="#47645c" stroke-width="6"/><path d="M101 85l18 7-9 17-18-6M155 85l-18 7 9 17 18-6" fill="#07110f"/><path d="M112 125h32l-5 18h-22Z" fill="#0d1716"/><path d="M98 166h60l20 48H78Z" fill="#0a1816" stroke="#3f7b62" stroke-width="5"/><circle cx="128" cy="184" r="18" fill="#052e16" stroke="#86efac" stroke-width="4"/><path d="M118 184l7 7 14-16" fill="none" stroke="#dcfce7" stroke-width="4"/></svg>
