<svg xmlns="http://www.w3.org/2000/svg" viewBox="0 0 256 256"><ellipse cx="128" cy="228" rx="63" ry="14" fill="#020617" opacity=".55"/><path d="M61 203L76 90l37-48h31l36 48 15 113-38 27H99Z" fill="#18283b" stroke="#040811" stroke-width="8"/><path d="M83 87L48 113l15 43 36-18M173 87l35 26-15 43-36-18" fill="#233f54" stroke="#67e8f9" stroke-width="5"/><path d="M94 59l34-36 35 36 10 67-45 34-45-34Z" fill="#151d31" stroke="#7b7aa0" stroke-width="6"/><circle cx="111" cy="94" r="16" fill="#312e81" stroke="#c4b5fd" stroke-width="5"/><circle cx="145" cy="94" r="16" fill="#164e63" stroke="#67e8f9" stroke-width="5"/><path d="M127 94h2" stroke="#fff" stroke-width="5"/><path d="M77 169h102l6 48H71Z" fill="#0b1220" stroke="#9c5c3a" stroke-width="5"/><path d="M102 188c12-24 40-24 52 0-12 24-40 24-52 0Z" fill="none" stroke="#c084fc" stroke-width="5"/><circle cx="128" cy="188" r="7" fill="#67e8f9"/></svg>
