<svg xmlns="http://www.w3.org/2000/svg" width="160" height="160" viewBox="0 0 160 160">
  <defs>
    <linearGradient id="gearMetal" x1="0" x2="0" y1="0" y2="1">
      <stop offset="0" stop-color="#7b8798"/>
      <stop offset="1" stop-color="#232b37"/>
    </linearGradient>
  </defs>
  <g stroke-linecap="round" stroke-linejoin="round">
    <rect x="74" y="18" width="12" height="66" rx="6" fill="url(#gearMetal)" stroke="#f8e5b7" stroke-width="3"/>
    <rect x="71" y="16" width="18" height="12" rx="4" fill="#ffe19a"/>
    <g fill="#d88a2d">
      <rect x="76" y="28" width="8" height="14" rx="3"/>
      <rect x="76" y="70" width="8" height="14" rx="3"/>
      <rect x="96" y="52" width="14" height="8" rx="3"/>
      <rect x="50" y="52" width="14" height="8" rx="3"/>
      <rect x="94" y="35" width="12" height="8" rx="3" transform="rotate(45 100 39)"/>
      <rect x="54" y="35" width="12" height="8" rx="3" transform="rotate(-45 60 39)"/>
      <rect x="94" y="69" width="12" height="8" rx="3" transform="rotate(-45 100 73)"/>
      <rect x="54" y="69" width="12" height="8" rx="3" transform="rotate(45 60 73)"/>
    </g>
    <circle cx="80" cy="56" r="20" fill="#364152" stroke="#ffbf69" stroke-width="4"/>
    <circle cx="80" cy="56" r="8" fill="#18202d" stroke="#ffd592" stroke-width="3"/>
    <rect x="65" y="82" width="30" height="34" rx="8" fill="#845127" stroke="#ffe0b1" stroke-width="3"/>
    <rect x="69" y="89" width="22" height="14" rx="5" fill="#ffb347"/>
    <path d="M67 114 L60 140 Q71 144 80 135 L80 118 Z" fill="#5f391b" stroke="#ffe0b1" stroke-width="3"/>
    <rect x="61" y="112" width="38" height="16" rx="8" fill="#67401e"/>
  </g>
</svg>
