<svg xmlns="http://www.w3.org/2000/svg" width="256" height="256" viewBox="0 0 256 256">
  <defs>
    <linearGradient id="bg" x1="0%" y1="0%" x2="100%" y2="100%">
      <stop offset="0%" stop-color="#140f0a"/>
      <stop offset="100%" stop-color="#7c2d12"/>
    </linearGradient>
    <linearGradient id="shaft" x1="0%" y1="0%" x2="100%" y2="0%">
      <stop offset="0%" stop-color="#76471f"/>
      <stop offset="100%" stop-color="#b67e45"/>
    </linearGradient>
    <radialGradient id="head" cx="40%" cy="35%" r="62%">
      <stop offset="0%" stop-color="#f1f5f9"/>
      <stop offset="100%" stop-color="#64748b"/>
    </radialGradient>
  </defs>
  <rect x="12" y="12" width="232" height="232" rx="40" fill="url(#bg)"/>
  <rect x="20" y="20" width="216" height="216" rx="32" fill="none" stroke="#fdba74" stroke-opacity="0.32" stroke-width="4"/>
  <g transform="translate(128 128) rotate(-33)">
    <rect x="-28" y="-7" width="116" height="14" rx="7" fill="url(#shaft)"/>
    <circle cx="112" cy="0" r="24" fill="url(#head)" stroke="#475569" stroke-width="3"/>
    <path d="M112 -34 L118 -22 L106 -22 Z M146 0 L132 6 L132 -6 Z M112 34 L106 22 L118 22 Z M78 0 L92 -6 L92 6 Z" fill="#e5e7eb"/>
    <rect x="-38" y="-10" width="22" height="20" rx="6" fill="#553219"/>
  </g>
</svg>
