<svg xmlns="http://www.w3.org/2000/svg" width="256" height="256" viewBox="0 0 256 256">
  <defs>
    <linearGradient id="bg" x1="0%" y1="0%" x2="100%" y2="100%">
      <stop offset="0%" stop-color="#0f172a"/>
      <stop offset="100%" stop-color="#334155"/>
    </linearGradient>
    <linearGradient id="shaft" x1="0%" y1="0%" x2="100%" y2="0%">
      <stop offset="0%" stop-color="#714320"/>
      <stop offset="100%" stop-color="#b37d45"/>
    </linearGradient>
    <linearGradient id="blade" x1="0%" y1="0%" x2="100%" y2="100%">
      <stop offset="0%" stop-color="#f8fafc"/>
      <stop offset="100%" stop-color="#94a3b8"/>
    </linearGradient>
  </defs>
  <rect x="12" y="12" width="232" height="232" rx="40" fill="url(#bg)"/>
  <rect x="20" y="20" width="216" height="216" rx="32" fill="none" stroke="#cbd5e1" stroke-opacity="0.3" stroke-width="4"/>
  <g transform="translate(128 128) rotate(-35)">
    <rect x="-28" y="-7" width="146" height="14" rx="7" fill="url(#shaft)"/>
    <path d="M108 -4 L144 -36 L157 -7 L136 13 Z" fill="url(#blade)" stroke="#cbd5e1" stroke-width="3" stroke-linejoin="round"/>
    <path d="M110 0 L144 28 L122 32 L98 14 Z" fill="#dbe4f0" stroke="#cbd5e1" stroke-width="3" stroke-linejoin="round"/>
    <path d="M126 0 L164 -16 L156 0 L164 16 Z" fill="#e5e7eb" stroke="#cbd5e1" stroke-width="3" stroke-linejoin="round"/>
    <rect x="-38" y="-10" width="22" height="20" rx="6" fill="#513116"/>
  </g>
</svg>
