<svg xmlns="http://www.w3.org/2000/svg" viewBox="0 0 192 192"><ellipse cx="96" cy="163" rx="58" ry="11" fill="#020617" opacity=".55"/><path d="M21 116L57 48l39 18 39-18 36 68-49 42H70Z" fill="#182832" stroke="#03080c" stroke-width="7"/><path d="M20 116l54-12-17 48ZM172 116l-54-12 17 48Z" fill="#a95e38" stroke="#321917" stroke-width="5"/><path d="M65 69l31-19 32 19-12 61-20 19-21-19Z" fill="#233743" stroke="#718994" stroke-width="5"/><path d="M70 84h52l-9 24-17 9-18-9Z" fill="#ef4444"/><path d="M79 90h34" stroke="#fecaca" stroke-width="6"/><path d="M52 59L33 31M140 59l19-28" stroke="#67e8f9" stroke-width="5"/><circle cx="31" cy="28" r="7" fill="#22d3ee"/><circle cx="161" cy="28" r="7" fill="#22d3ee"/></svg>
