<svg xmlns="http://www.w3.org/2000/svg" viewBox="0 0 192 192"><defs><radialGradient id="a"><stop stop-color="#fecdd3"/><stop offset=".3" stop-color="#e11d48"/><stop offset="1" stop-color="#24070d"/></radialGradient></defs><ellipse cx="96" cy="171" rx="78" ry="14" fill="#020617" opacity=".68"/><path d="M16 145L27 54l39-37 30 17 30-17 39 37 11 91-40 30H56Z" fill="#37151e" stroke="#070307" stroke-width="10"/><path d="M29 52L5 75l10 76 49-22M163 52l24 23-10 76-49-22" fill="#611827" stroke="#fb7185" stroke-width="7"/><path d="M58 34l38-25 39 25 17 91-56 45-56-45Z" fill="#2b1720" stroke="#89505e" stroke-width="7"/><path d="M55 68h82l-12 60-29 24-30-24Z" fill="#10050a"/><path d="M68 81h56" stroke="#f43f5e" stroke-width="12"/><path d="M78 84h36" stroke="#fff1f2" stroke-width="4"/><circle cx="96" cy="141" r="22" fill="url(#a)" stroke="#fecdd3" stroke-width="4"/><path d="M96 120l7 14 16 2-12 11 3 16-14-8-14 8 3-16-12-11 16-2Z" fill="#fff"/></svg>
