<svg xmlns="http://www.w3.org/2000/svg" viewBox="0 0 192 192"><ellipse cx="96" cy="170" rx="78" ry="14" fill="#020617" opacity=".64"/><path d="M17 143L25 55l45-38h52l45 38 8 88-38 30H55Z" fill="#3a3030" stroke="#060708" stroke-width="10"/><path d="M30 51L4 80l12 67 45-20M162 51l26 29-12 67-45-20" fill="#5d4136" stroke="#d27a42" stroke-width="7"/><path d="M67 34l29-22 30 22 24 85-54 45-54-45Z" fill="#202d34" stroke="#7b8c92" stroke-width="7"/><path d="M57 66h78l-10 55-29 24-30-24Z" fill="#090f13"/><path d="M67 77h58" stroke="#fb7185" stroke-width="12"/><path d="M77 80h38" stroke="#fff1f2" stroke-width="4"/><circle cx="96" cy="143" r="18" fill="#431407" stroke="#fb923c" stroke-width="5"/><path d="M96 132v22M85 143h22" stroke="#fed7aa" stroke-width="4"/></svg>
