<svg xmlns="http://www.w3.org/2000/svg" viewBox="0 0 192 192"><ellipse cx="96" cy="168" rx="52" ry="10" fill="#020617" opacity=".56"/><path d="M58 162L67 96h58l9 66Z" fill="#18312b" stroke="#040a08" stroke-width="7"/><path d="M27 94C31 42 68 20 96 20s65 22 69 74l-30 21H57Z" fill="#273b35" stroke="#050b09" stroke-width="7"/><path d="M43 84C53 51 76 38 96 38s43 13 53 46l-26 11H69Z" fill="#84cc16" stroke="#365314" stroke-width="5"/><circle cx="68" cy="61" r="9" fill="#d9f99d"/><circle cx="119" cy="53" r="7" fill="#bef264"/><circle cx="140" cy="78" r="6" fill="#ecfccb"/><path d="M76 108h40v36H76Z" fill="#071711" stroke="#4ade80" stroke-width="4"/><circle cx="88" cy="124" r="5" fill="#a7f3d0"/><circle cx="105" cy="124" r="5" fill="#a7f3d0"/><path d="M64 145l-28 16M128 145l28 16" stroke="#b56a3d" stroke-width="7"/></svg>
