<svg xmlns="http://www.w3.org/2000/svg" viewBox="0 0 192 192"><ellipse cx="96" cy="166" rx="71" ry="13" fill="#020617" opacity=".62"/><path d="M22 139L31 61l40-37h50l40 37 9 78-36 30H58Z" fill="#263741" stroke="#03070a" stroke-width="9"/><path d="M35 61L8 88l15 55 38-19M157 61l27 27-15 55-38-19" fill="#3f5159" stroke="#a9613b" stroke-width="7"/><path d="M67 39l29-20 30 20 19 72-49 41-49-41Z" fill="#16262e" stroke="#718993" stroke-width="6"/><path d="M61 71h70l-8 42-27 21-28-21Z" fill="#07141b"/><path d="M69 80h54" stroke="#f97316" stroke-width="10"/><path d="M77 84h38" stroke="#fed7aa" stroke-width="4"/><path d="M73 139h46l8 24H65Z" fill="#0e7490" stroke="#67e8f9" stroke-width="4"/></svg>
