<svg xmlns="http://www.w3.org/2000/svg" width="256" height="256" viewBox="0 0 256 256">
  <defs>
    <linearGradient id="bg" x1="0%" y1="0%" x2="100%" y2="100%">
      <stop offset="0%" stop-color="#120812"/>
      <stop offset="52%" stop-color="#260b17"/>
      <stop offset="100%" stop-color="#09040a"/>
    </linearGradient>
    <linearGradient id="rim" x1="10%" y1="10%" x2="90%" y2="90%">
      <stop offset="0%" stop-color="#fecaca" stop-opacity="0.9"/>
      <stop offset="45%" stop-color="#fb7185" stop-opacity="0.76"/>
      <stop offset="100%" stop-color="#7f1d1d" stop-opacity="0.98"/>
    </linearGradient>
    <radialGradient id="halo" cx="50%" cy="40%" r="62%">
      <stop offset="0%" stop-color="#fecaca" stop-opacity="0.96"/>
      <stop offset="54%" stop-color="#ef4444" stop-opacity="0.32"/>
      <stop offset="100%" stop-color="#3f0b15" stop-opacity="0"/>
    </radialGradient>
    <radialGradient id="body" cx="45%" cy="36%" r="60%">
      <stop offset="0%" stop-color="#fb7185"/>
      <stop offset="48%" stop-color="#b91c1c"/>
      <stop offset="100%" stop-color="#4c0519"/>
    </radialGradient>
    <radialGradient id="core" cx="50%" cy="48%" r="52%">
      <stop offset="0%" stop-color="#fff7ed"/>
      <stop offset="100%" stop-color="#fecdd3"/>
    </radialGradient>
    <filter id="shadow" x="-20%" y="-20%" width="140%" height="150%">
      <feDropShadow dx="0" dy="18" stdDeviation="18" flood-color="#020617" flood-opacity="0.52"/>
    </filter>
  </defs>
  <g filter="url(#shadow)">
    <rect x="12" y="12" width="232" height="232" rx="44" fill="url(#bg)"/>
    <rect x="19" y="19" width="218" height="218" rx="35" fill="none" stroke="url(#rim)" stroke-width="4" opacity="0.95"/>
  </g>
  <path d="M39 45 L189 25 L229 89 L98 74 Z" fill="#ef4444" opacity="0.13"/>
  <circle cx="128" cy="114" r="84" fill="url(#halo)"/>
  <g>
    <path d="M128 41 L161 61 L196 58 L201 92 L223 121 L201 149 L196 184 L161 181 L128 201 L95 181 L60 184 L55 149 L33 121 L55 92 L60 58 L95 61 Z" fill="url(#body)" stroke="#fecdd3" stroke-opacity="0.42" stroke-width="4" stroke-linejoin="round"/>
    <circle cx="128" cy="121" r="44" fill="#7f1d1d" opacity="0.62"/>
    <circle cx="128" cy="121" r="30" fill="url(#core)"/>
    <path d="M108 118 Q128 102 148 118" stroke="#7f1d1d" stroke-width="6" fill="none" stroke-linecap="round"/>
    <circle cx="111" cy="110" r="5" fill="#7f1d1d"/>
    <circle cx="145" cy="110" r="5" fill="#7f1d1d"/>
    <circle cx="128" cy="45" r="9" fill="#ef4444"/>
    <circle cx="204" cy="121" r="9" fill="#ef4444"/>
    <circle cx="128" cy="197" r="9" fill="#ef4444"/>
    <circle cx="52" cy="121" r="9" fill="#ef4444"/>
    <circle cx="181" cy="68" r="7" fill="#fb7185" fill-opacity="0.9"/>
    <circle cx="181" cy="174" r="7" fill="#fb7185" fill-opacity="0.9"/>
    <circle cx="75" cy="174" r="7" fill="#fb7185" fill-opacity="0.9"/>
    <circle cx="75" cy="68" r="7" fill="#fb7185" fill-opacity="0.9"/>
  </g>
  <path d="M58 220 H 198" stroke="#fecaca" stroke-opacity="0.34" stroke-width="4" stroke-linecap="round"/>
  <circle cx="45" cy="61" r="5" fill="#fecaca" fill-opacity="0.92"/>
  <circle cx="212" cy="51" r="3" fill="#ef4444" fill-opacity="0.85"/>
</svg>
