<svg xmlns="http://www.w3.org/2000/svg" width="256" height="256" viewBox="0 0 256 256">
  <defs>
    <linearGradient id="bg" x1="0%" y1="0%" x2="100%" y2="100%">
      <stop offset="0%" stop-color="#07111f"/>
      <stop offset="52%" stop-color="#0b1c34"/>
      <stop offset="100%" stop-color="#050b16"/>
    </linearGradient>
    <linearGradient id="rim" x1="10%" y1="10%" x2="90%" y2="90%">
      <stop offset="0%" stop-color="#f8fafc" stop-opacity="0.82"/>
      <stop offset="45%" stop-color="#cbd5e1" stop-opacity="0.76"/>
      <stop offset="100%" stop-color="#64748b" stop-opacity="0.95"/>
    </linearGradient>
    <radialGradient id="halo" cx="50%" cy="39%" r="58%">
      <stop offset="0%" stop-color="#f8fafc" stop-opacity="0.85"/>
      <stop offset="52%" stop-color="#94a3b8" stop-opacity="0.26"/>
      <stop offset="100%" stop-color="#0f172a" stop-opacity="0"/>
    </radialGradient>
    <linearGradient id="body" x1="16%" y1="12%" x2="84%" y2="88%">
      <stop offset="0%" stop-color="#e2e8f0"/>
      <stop offset="42%" stop-color="#94a3b8"/>
      <stop offset="100%" stop-color="#334155"/>
    </linearGradient>
    <linearGradient id="core" x1="0%" y1="0%" x2="100%" y2="100%">
      <stop offset="0%" stop-color="#fbbf24"/>
      <stop offset="100%" stop-color="#b45309"/>
    </linearGradient>
    <filter id="shadow" x="-20%" y="-20%" width="140%" height="150%">
      <feDropShadow dx="0" dy="18" stdDeviation="18" flood-color="#020617" flood-opacity="0.5"/>
    </filter>
  </defs>
  <g filter="url(#shadow)">
    <rect x="12" y="12" width="232" height="232" rx="44" fill="url(#bg)"/>
    <rect x="19" y="19" width="218" height="218" rx="35" fill="none" stroke="url(#rim)" stroke-width="4" opacity="0.95"/>
  </g>
  <path d="M38 46 L186 24 L228 86 L95 73 Z" fill="#f59e0b" opacity="0.12"/>
  <circle cx="128" cy="114" r="82" fill="url(#halo)"/>
  <g>
    <path d="M84 55 L172 55 L194 98 L183 162 L145 186 L111 186 L73 162 L62 98 Z" fill="url(#body)" stroke="#e2e8f0" stroke-opacity="0.35" stroke-width="4" stroke-linejoin="round"/>
    <path d="M101 43 L155 43 L172 61 L84 61 Z" fill="#64748b"/>
    <path d="M77 91 L96 79 L96 155 L74 142 Z" fill="#475569"/>
    <path d="M160 79 L179 91 L182 142 L160 155 Z" fill="#475569"/>
    <path d="M105 84 L151 84 L163 107 L152 161 L104 161 L93 107 Z" fill="#1e293b" stroke="#f59e0b" stroke-width="3.5" stroke-opacity="0.72" stroke-linejoin="round"/>
    <path d="M112 98 H144 L150 112 L144 145 H112 L106 112 Z" fill="#334155"/>
    <rect x="105" y="110" width="46" height="14" rx="7" fill="url(#core)"/>
    <circle cx="91" cy="83" r="6" fill="#f8fafc" fill-opacity="0.72"/>
    <circle cx="164" cy="83" r="6" fill="#f8fafc" fill-opacity="0.72"/>
    <path d="M90 174 L108 162 L118 185 L98 194 Z" fill="#64748b"/>
    <path d="M166 174 L148 162 L138 185 L158 194 Z" fill="#64748b"/>
  </g>
  <path d="M58 220 H 198" stroke="#f8fafc" stroke-opacity="0.3" stroke-width="4" stroke-linecap="round"/>
  <circle cx="44" cy="60" r="5" fill="#f8fafc" fill-opacity="0.9"/>
  <circle cx="212" cy="51" r="3" fill="#f59e0b" fill-opacity="0.8"/>
</svg>
