<svg xmlns="http://www.w3.org/2000/svg" width="160" height="160" viewBox="0 0 160 160">
  <defs>
    <linearGradient id="coilSteel" x1="0" x2="0" y1="0" y2="1">
      <stop offset="0" stop-color="#6d7f98"/>
      <stop offset="1" stop-color="#1d2635"/>
    </linearGradient>
    <linearGradient id="coilGlow" x1="0" x2="0" y1="0" y2="1">
      <stop offset="0" stop-color="#b8fbff"/>
      <stop offset="1" stop-color="#32d7f8"/>
    </linearGradient>
  </defs>
  <g stroke-linecap="round" stroke-linejoin="round">
    <rect x="74" y="18" width="12" height="66" rx="6" fill="url(#coilSteel)" stroke="#d8e5f7" stroke-width="3"/>
    <rect x="71" y="16" width="18" height="12" rx="4" fill="#58efff" opacity="0.95"/>
    <ellipse cx="80" cy="42" rx="18" ry="7" fill="none" stroke="url(#coilGlow)" stroke-width="4"/>
    <ellipse cx="80" cy="56" rx="18" ry="7" fill="none" stroke="url(#coilGlow)" stroke-width="4"/>
    <ellipse cx="80" cy="70" rx="18" ry="7" fill="none" stroke="url(#coilGlow)" stroke-width="4"/>
    <rect x="66" y="82" width="28" height="34" rx="9" fill="#263041" stroke="#e7f0ff" stroke-width="3"/>
    <rect x="71" y="88" width="18" height="18" rx="6" fill="#5aefff" opacity="0.95"/>
    <rect x="91" y="86" width="10" height="28" rx="5" fill="#131b27" transform="rotate(18 96 100)"/>
    <path d="M67 114 L61 138 Q70 143 79 136 L79 118 Z" fill="#1a2230" stroke="#e7f0ff" stroke-width="3"/>
    <rect x="63" y="112" width="34" height="16" rx="7" fill="#56647c"/>
    <circle cx="80" cy="99" r="5" fill="#15354b"/>
  </g>
</svg>
