<svg xmlns="http://www.w3.org/2000/svg" viewBox="0 0 1280 720">
  <defs>
    <linearGradient id="floor" x1="0" y1="0" x2="1" y2="1"><stop stop-color="#07131d"/><stop offset=".5" stop-color="#0d1b25"/><stop offset="1" stop-color="#02070d"/></linearGradient>
    <radialGradient id="core"><stop stop-color="#67e8f9" stop-opacity=".34"/><stop offset=".42" stop-color="#0891b2" stop-opacity=".1"/><stop offset="1" stop-color="#020617" stop-opacity="0"/></radialGradient>
    <linearGradient id="copper"><stop stop-color="#f0a35c"/><stop offset=".5" stop-color="#8f4d2c"/><stop offset="1" stop-color="#321a17"/></linearGradient>
    <pattern id="grid" width="64" height="64" patternUnits="userSpaceOnUse"><path d="M64 0H0V64" fill="none" stroke="#5ee5ff" stroke-opacity=".055"/><circle cx="0" cy="0" r="2" fill="#67e8f9" fill-opacity=".16"/></pattern>
    <filter id="glow"><feGaussianBlur stdDeviation="7" result="b"/><feMerge><feMergeNode in="b"/><feMergeNode in="SourceGraphic"/></feMerge></filter>
  </defs>
  <rect width="1280" height="720" fill="url(#floor)"/>
  <rect width="1280" height="720" fill="url(#grid)"/>
  <ellipse cx="640" cy="360" rx="470" ry="330" fill="url(#core)"/>
  <g fill="#0b1620" stroke="#263845" stroke-width="3">
    <path d="M0 0H330L270 74H0Z"/><path d="M1280 0H950L1010 74H1280Z"/><path d="M0 720H330L270 646H0Z"/><path d="M1280 720H950L1010 646H1280Z"/>
    <path d="M0 212L88 254V466L0 508Z"/><path d="M1280 212L1192 254V466L1280 508Z"/>
  </g>
  <g fill="none" stroke="url(#copper)" stroke-width="5" opacity=".75">
    <path d="M36 98H210L286 174H426L486 234"/><path d="M1244 98H1070L994 174H854L794 234"/>
    <path d="M36 622H210L286 546H426L486 486"/><path d="M1244 622H1070L994 546H854L794 486"/>
  </g>
  <g fill="none" stroke="#22d3ee" stroke-width="2" filter="url(#glow)">
    <path d="M36 116H202L278 192H418L492 266"/><path d="M1244 116H1078L1002 192H862L788 266"/>
    <path d="M36 604H202L278 528H418L492 454"/><path d="M1244 604H1078L1002 528H862L788 454"/>
  </g>
  <g transform="translate(640 360)">
    <circle r="154" fill="#030b12" stroke="#314654" stroke-width="12"/><circle r="132" fill="none" stroke="#a45c35" stroke-width="4" stroke-dasharray="30 12"/>
    <circle r="104" fill="none" stroke="#22d3ee" stroke-opacity=".55" stroke-width="3" stroke-dasharray="7 15" filter="url(#glow)"/>
    <path d="M0-118L26-45L108-34L44 18L66 98L0 54L-66 98L-44 18L-108-34L-26-45Z" fill="#0b1720" stroke="#536b78" stroke-width="3"/>
    <circle r="42" fill="#061d27" stroke="#67e8f9" stroke-width="3" filter="url(#glow)"/><circle r="15" fill="#a5f3fc"/><circle r="6" fill="#fff"/>
  </g>
  <g fill="#13232d" stroke="#8b583c" stroke-width="2">
    <path d="M116 170l34-20 34 20v40l-34 20-34-20z"/><path d="M1096 170l34-20 34 20v40l-34 20-34-20z"/>
    <path d="M116 510l34-20 34 20v40l-34 20-34-20z"/><path d="M1096 510l34-20 34 20v40l-34 20-34-20z"/>
  </g>
  <g fill="#67e8f9" filter="url(#glow)"><circle cx="150" cy="190" r="6"/><circle cx="1130" cy="190" r="6"/><circle cx="150" cy="530" r="6"/><circle cx="1130" cy="530" r="6"/></g>
  <path d="M22 44H1258V676H22Z" fill="none" stroke="#6d8190" stroke-opacity=".46" stroke-width="5"/><path d="M34 56H1246V664H34Z" fill="none" stroke="#22d3ee" stroke-opacity=".16" stroke-width="2"/>
  <g fill="#d88b50" opacity=".65"><path d="M54 74h90v4H54z"/><path d="M1136 74h90v4h-90z"/><path d="M54 642h90v4H54z"/><path d="M1136 642h90v4h-90z"/></g>
</svg>
