<svg xmlns="http://www.w3.org/2000/svg" viewBox="0 0 256 256"><defs><linearGradient id="a"><stop stop-color="#77452f"/><stop offset="1" stop-color="#1a1516"/></linearGradient></defs><ellipse cx="128" cy="228" rx="73" ry="16" fill="#020617" opacity=".6"/><path d="M48 188l18-92 39-37h52l36 37 15 92-38 38H86Z" fill="url(#a)" stroke="#07090d" stroke-width="9"/><path d="M72 92L38 109l13 47 40-9M184 91l34 18-11 47-41-9" fill="#26343d" stroke="#b66a3d" stroke-width="7"/><path d="M91 61l23-22h36l22 22 10 63-54 28-53-28Z" fill="#121d25" stroke="#6b7f89" stroke-width="6"/><path d="M95 78h66l-6 29-27 11-28-11Z" fill="#ef6a4c"/><path d="M105 83h46l-5 13-18 7-18-7Z" fill="#ffd3b6"/><path d="M70 170h116l-15 49H85Z" fill="#101820" stroke="#9c5b38" stroke-width="6"/><path d="M112 171l16-24 16 24-16 31Z" fill="#fb7185" stroke="#fecdd3" stroke-width="3"/></svg>
