<svg xmlns="http://www.w3.org/2000/svg" viewBox="0 0 256 256"><ellipse cx="128" cy="226" rx="58" ry="13" fill="#020617" opacity=".5"/><path d="M72 204L85 83l31-43h29l28 43 11 121-31 25h-51Z" fill="#152934" stroke="#04090d" stroke-width="8"/><path d="M88 74L48 94l-19 61 52-28M168 74l40 20 19 61-52-28" fill="#163f4d" stroke="#22d3ee" stroke-width="5"/><path d="M101 50l27-30 27 30 14 71-41 29-41-29Z" fill="#1d303b" stroke="#65808c" stroke-width="5"/><path d="M100 80h56l-5 28-23 14-24-14Z" fill="#fbbf24"/><path d="M111 87h34" stroke="#fff7cc" stroke-width="6"/><path d="M92 161h72l12 48H80Z" fill="#0b1820" stroke="#bd713f" stroke-width="5"/><path d="M105 173h46l-7 24h-32Z" fill="#0e7490" stroke="#67e8f9" stroke-width="4"/></svg>
