<svg xmlns="http://www.w3.org/2000/svg" viewBox="0 0 256 256"><ellipse cx="128" cy="228" rx="64" ry="14" fill="#020617" opacity=".55"/><path d="M61 202L72 93l37-45h42l35 45 9 109-38 27H98Z" fill="#dbe8e8" stroke="#081014" stroke-width="8"/><path d="M80 91l-29 31 16 38 31-18M176 91l29 31-16 38-31-18" fill="#334b52" stroke="#67e8f9" stroke-width="5"/><path d="M93 62l35-30 35 30 8 68-43 25-43-25Z" fill="#eefafa" stroke="#56727a" stroke-width="6"/><path d="M101 84h54v29h-54Z" fill="#082f49"/><path d="M108 94h40" stroke="#67e8f9" stroke-width="7"/><path d="M77 168h102l4 47H73Z" fill="#12252b" stroke="#6b8990" stroke-width="5"/><path d="M121 171h14v14h14v14h-14v14h-14v-14h-14v-14h14Z" fill="#22d3ee"/></svg>
