<svg xmlns="http://www.w3.org/2000/svg" viewBox="0 0 256 256"><ellipse cx="128" cy="228" rx="65" ry="14" fill="#020617" opacity=".55"/><path d="M61 202L73 91l37-44h39l35 44 11 111-39 27H99Z" fill="#26343b" stroke="#05090c" stroke-width="8"/><path d="M79 92l-35 30 19 44 35-21M177 92l35 30-19 44-35-21" fill="#472e25" stroke="#d4824c" stroke-width="5"/><path d="M92 60l36-28 36 28 8 67-44 30-44-30Z" fill="#18252b" stroke="#6a7f87" stroke-width="6"/><circle cx="111" cy="93" r="17" fill="#082f49" stroke="#67e8f9" stroke-width="5"/><circle cx="145" cy="93" r="17" fill="#082f49" stroke="#67e8f9" stroke-width="5"/><path d="M128 93h-1M104 123h48" stroke="#cbd5e1" stroke-width="4"/><path d="M75 169h106l2 47H73Z" fill="#111d22" stroke="#9a5b37" stroke-width="5"/><circle cx="128" cy="187" r="22" fill="#3b241d" stroke="#f59e0b" stroke-width="4"/><path d="M128 170v34M111 187h34" stroke="#67e8f9" stroke-width="5"/></svg>
