<svg xmlns="http://www.w3.org/2000/svg" viewBox="0 0 256 256"><defs><radialGradient id="h"><stop stop-color="#e9d5ff"/><stop offset=".35" stop-color="#a855f7" stop-opacity=".65"/><stop offset="1" stop-color="#22d3ee" stop-opacity="0"/></radialGradient></defs><ellipse cx="128" cy="226" rx="60" ry="14" fill="#020617" opacity=".55"/><circle cx="128" cy="83" r="70" fill="url(#h)"/><path d="M59 199L78 89l50-54 50 54 19 110-38 29H97Z" fill="#151329" stroke="#050711" stroke-width="8"/><path d="M82 93l46-50 46 50-17 60H99Z" fill="#221b3f" stroke="#8b5cf6" stroke-width="5"/><path d="M101 94l27-23 28 23-9 31-19 12-20-12Z" fill="#081c29" stroke="#67e8f9" stroke-width="4"/><path d="M112 101h10M134 101h10" stroke="#f0abfc" stroke-width="6" stroke-linecap="round"/><circle cx="128" cy="180" r="25" fill="#13072b" stroke="#c084fc" stroke-width="5"/><path d="M128 158l8 15 17 2-12 12 3 17-16-8-16 8 3-17-12-12 17-2Z" fill="#67e8f9"/></svg>
