<svg xmlns="http://www.w3.org/2000/svg" viewBox="0 0 256 256"><ellipse cx="128" cy="228" rx="62" ry="14" fill="#020617" opacity=".55"/><path d="M62 204L78 87l38-45h29l35 45 14 117-38 25H98Z" fill="#162a27" stroke="#030807" stroke-width="8"/><path d="M82 82L43 105l10 45 44-13M174 82l39 23-10 45-44-13" fill="#23443b" stroke="#5ca67d" stroke-width="6"/><path d="M96 57l32-31 33 31 10 68-43 31-43-31Z" fill="#1d332f" stroke="#6f887f" stroke-width="6"/><path d="M99 79h58l-7 27-22 13-23-13Z" fill="#f59e0b"/><path d="M108 86h40" stroke="#fff7d6" stroke-width="6"/><path d="M74 169h108l-8 47H82Z" fill="#0e1b19" stroke="#a6633c" stroke-width="5"/><path d="M107 174l21-18 21 18-7 27h-28Z" fill="#14532d" stroke="#86efac" stroke-width="4"/></svg>
