<svg xmlns="http://www.w3.org/2000/svg" viewBox="0 0 256 256"><ellipse cx="128" cy="228" rx="59" ry="13" fill="#020617" opacity=".52"/><path d="M67 203L80 88l34-44h29l33 44 13 115-35 27h-52Z" fill="#302b19" stroke="#080703" stroke-width="8"/><path d="M84 86L51 112l17 42 34-19M172 86l33 26-17 42-34-19" fill="#51451d" stroke="#facc15" stroke-width="5"/><path d="M97 59l31-34 32 34 11 67-43 31-42-31Z" fill="#292617" stroke="#8f844f" stroke-width="6"/><path d="M101 82h54l-7 25-20 12-21-12Z" fill="#fde047"/><path d="M78 168h100l8 48H70Z" fill="#17160d" stroke="#ad6e3d" stroke-width="5"/><path d="M128 164l8 15 17 3-12 12 3 17-16-8-16 8 3-17-12-12 17-3Z" fill="#facc15" stroke="#fef3c7" stroke-width="3"/></svg>
