<svg xmlns="http://www.w3.org/2000/svg" viewBox="0 0 256 256"><ellipse cx="128" cy="231" rx="82" ry="16" fill="#020617" opacity=".62"/><path d="M35 197L52 88l47-49h58l47 49 17 109-45 35H80Z" fill="#263640" stroke="#05090c" stroke-width="10"/><path d="M55 84L21 112l18 65 46-19M201 84l34 28-18 65-46-19" fill="#3d505a" stroke="#b86e43" stroke-width="7"/><path d="M91 48l37-26 37 26 18 84-55 36-55-36Z" fill="#18262e" stroke="#718891" stroke-width="7"/><path d="M98 78h60l8 38-38 22-38-22Z" fill="#06121a"/><path d="M105 89h46" stroke="#67e8f9" stroke-width="9"/><path d="M68 166h120l17 51H51Z" fill="#111d23" stroke="#905537" stroke-width="6"/><path d="M128 169l29 16-9 31h-40l-9-31Z" fill="#123448" stroke="#67e8f9" stroke-width="4"/></svg>
